<?xml version="1.0" encoding="utf-8"?>
<!-- Svg Vector Icons : http://www.onlinewebfonts.com/icon -->
<!DOCTYPE svg PUBLIC "-//W3C//DTD SVG 1.1//EN" "http://www.w3.org/Graphics/SVG/1.1/DTD/svg11.dtd">
<svg version="1.1" xmlns="http://www.w3.org/2000/svg" xmlns:xlink="http://www.w3.org/1999/xlink" x="0px" y="0px" viewBox="0 0 256 256" enable-background="new 0 0 256 256" xml:space="preserve">
<metadata> Svg Vector Icons : http://www.onlinewebfonts.com/icon </metadata>
<g><g><path fill="#ee22ac" d="M243.6,102.9c-0.9-3.5-3.8-6.1-7.4-6.6l-19.3-2.5c-0.4-1.1-0.7-1.9-0.7-2l-0.3-0.8c0,0-0.3-0.7-0.8-1.7l11.9-15.5c2.2-2.9,2.4-6.8,0.6-9.9c-0.2-0.3-5.1-8.6-16-19.5c-10.9-10.9-19.1-15.8-19.4-16c-3.1-1.8-7-1.6-9.9,0.6l-15.5,11.9c-1-0.5-1.7-0.8-1.7-0.8c-0.1,0-0.2-0.1-0.3-0.1l-0.7-0.3c0,0-0.7-0.3-1.8-0.7l-2.5-19.3c-0.5-3.6-3.1-6.5-6.6-7.4c-0.4-0.1-9.7-2.5-25.1-2.5s-24.7,2.3-25.1,2.4c-3.5,0.9-6.1,3.8-6.6,7.4l-2.5,19.3c-1.1,0.4-1.9,0.7-1.9,0.7l-0.6,0.2c-0.1,0-0.2,0.1-0.2,0.1c0,0-0.7,0.3-1.7,0.8L73.9,29.1c-2.9-2.2-6.8-2.4-9.9-0.6c-0.3,0.2-8.5,5.1-19.5,16C33.6,55.4,28.7,63.6,28.5,64c-1.8,3.1-1.6,7,0.6,9.9L41,89.3c-0.5,1-0.8,1.7-0.8,1.7l0,0c-0.2,0.3-0.3,0.6-0.4,1c0,0-0.3,0.7-0.7,1.8l-19.3,2.5c-3.6,0.5-6.5,3.1-7.4,6.6c-0.1,0.4-2.4,9.6-2.4,25.1s2.3,24.7,2.4,25.1c0.9,3.5,3.9,6.1,7.4,6.6l19.3,2.5c0.4,1.1,0.7,1.9,0.7,1.9l0.2,0.6c0,0.1,0.1,0.2,0.1,0.2c0,0,0.3,0.7,0.8,1.7l-11.9,15.5c-2.2,2.9-2.4,6.8-0.6,9.9c0.2,0.3,5.1,8.5,16,19.4c10.9,10.9,19.1,15.8,19.5,16c3.1,1.8,7,1.6,9.9-0.6L89.3,215c1,0.5,1.7,0.8,1.7,0.8c0.1,0,0.2,0.1,0.2,0.1l0.7,0.3c0,0,0.7,0.3,1.8,0.7l2.5,19.3c0.5,3.6,3.1,6.5,6.6,7.4c0.4,0.1,9.6,2.4,25.1,2.4c15.4,0,24.7-2.3,25.1-2.4c3.5-0.9,6.1-3.8,6.6-7.4l2.5-19.3c1.1-0.4,1.9-0.7,2-0.7l0.8-0.3c0,0,0.7-0.3,1.7-0.8l15.5,11.9c2.9,2.2,6.8,2.5,9.9,0.6c0.3-0.2,8.5-5.1,19.4-16c10.9-10.9,15.8-19.1,16-19.4c1.8-3.1,1.6-7-0.6-9.9l-11.9-15.4c0.5-1,0.8-1.7,0.8-1.7c0-0.1,0.1-0.2,0.1-0.2l0.3-0.7c0,0,0.3-0.7,0.7-1.8l19.3-2.5c3.6-0.5,6.5-3.1,7.4-6.6c0.1-0.4,2.4-9.6,2.4-25.1C246,112.6,243.7,103.3,243.6,102.9z M227.4,143l-18.3,2.4c-3.3,0.4-6.1,2.7-7.2,5.9c-1,3.1-2.2,6.2-2.2,6.2l-0.2,0.5c-0.3,0.6-1.5,3.3-2.8,6c-1.5,3-1.1,6.6,0.9,9.3l11.2,14.6c-2.2,2.8-5.4,6.7-9.9,11.2c-4.5,4.5-8.4,7.8-11.2,9.9l-14.6-11.2c-2.7-2-6.3-2.4-9.3-0.9c-2.9,1.4-5.9,2.8-5.9,2.8s0,0,0,0l-0.4,0.2c0,0-3.2,1.2-6.3,2.3c-3.2,1.1-5.5,3.9-5.9,7.2l-2.4,18.3c-3.5,0.5-8.6,0.9-14.9,0.9c-6.3,0-11.4-0.4-14.9-0.9l-2.4-18.3c-0.4-3.3-2.7-6.1-5.9-7.2c-3.1-1-6.2-2.2-6.2-2.2l-0.5-0.2c-0.6-0.3-3.3-1.5-6-2.8c-3-1.5-6.6-1.1-9.3,0.9l-14.6,11.2c-2.8-2.2-6.7-5.4-11.2-9.9c-4.5-4.5-7.7-8.4-9.9-11.2l11.2-14.6c2-2.7,2.4-6.3,0.9-9.3c-1.3-2.7-2.6-5.4-2.8-6l-0.1-0.3c0,0-1.2-3.2-2.3-6.3c-1.1-3.2-3.9-5.5-7.2-5.9L28.5,143c-0.5-3.5-0.9-8.6-0.9-14.9c0-6.3,0.5-11.4,0.9-14.9l18.3-2.4c3.3-0.4,6.1-2.7,7.2-5.9c1.1-3.1,2.3-6.3,2.3-6.3c0-0.1,0-0.1,0.1-0.2l0,0c0,0,1.4-3.1,2.8-6.1c1.5-3,1.1-6.6-0.9-9.3L47.1,68.3c2.2-2.8,5.4-6.7,9.9-11.2c4.5-4.5,8.4-7.8,11.2-9.9l14.6,11.2c2.7,2,6.3,2.4,9.3,0.9c2.7-1.3,5.4-2.6,6-2.8l0.3-0.1c0,0,3.2-1.2,6.3-2.3c3.2-1.1,5.5-3.9,5.9-7.2l2.4-18.3c3.5-0.5,8.6-0.9,14.9-0.9s11.4,0.5,14.9,0.9l2.4,18.3c0.4,3.3,2.7,6.1,5.9,7.2c3.1,1.1,6.2,2.2,6.2,2.2l0,0l0.5,0.2c0.6,0.3,3.3,1.5,6,2.8c3,1.5,6.6,1.1,9.3-0.9l14.6-11.2c2.8,2.2,6.7,5.4,11.2,9.9s7.8,8.4,9.9,11.2l-11.2,14.6c-2,2.7-2.4,6.3-0.9,9.3c1.4,2.9,2.8,5.9,2.8,5.9l0,0l0.2,0.4c0,0,1.2,3.2,2.3,6.3c1.1,3.2,3.9,5.5,7.2,5.9l18.3,2.4c0.5,3.5,0.9,8.6,0.9,14.9C228.3,134.4,227.9,139.4,227.4,143z"/><path fill="#ee22ac" d="M128,71.7c-31.1,0-56.4,25.3-56.4,56.4c0,31.1,25.3,56.4,56.4,56.4c31.1,0,56.3-25.3,56.3-56.4C184.3,96.9,159.1,71.7,128,71.7z M128,166.7c-21.3,0-38.7-17.3-38.7-38.7c0-21.3,17.3-38.7,38.7-38.7c21.3,0,38.7,17.3,38.7,38.7C166.7,149.3,149.3,166.7,128,166.7z"/></g></g>
</svg>